<svg width="32" height="32" viewBox="0 0 32 32" fill="none" xmlns="http://www.w3.org/2000/svg">
<path d="M19.2308 24.0331V26.876C19.6692 26.8921 20.075 26.9158 20.4808 26.9209C21.1777 26.9294 21.8746 26.9209 22.5716 26.9294C22.9004 26.9336 23.1966 27.014 23.2125 27.4289C23.225 27.776 22.9932 27.9656 22.5381 27.9961C22.4268 28.0037 22.3147 27.9978 22.2034 27.9978C17.6863 27.9978 13.1692 27.9978 8.65203 27.9961C8.45709 27.9961 8.2588 28.0097 8.06804 27.9783C7.73505 27.9233 7.60536 27.6795 7.63046 27.3645C7.65389 27.0682 7.83879 26.9175 8.13581 26.9175C8.86036 26.9175 9.58574 26.9201 10.3103 26.9209C10.6952 26.9209 11.0792 26.9209 11.5226 26.9209V24.0847C11.2164 24.0678 10.9211 24.0373 10.6257 24.0373C7.89318 24.0331 5.16064 24.0407 2.4281 24.0314C1.3396 24.0272 0.483699 23.4184 0.128955 22.4025C0.0385952 22.1451 0.00429206 21.8547 0.0034554 21.5796C0.000108752 15.2062 -0.00407456 8.83286 0.00847537 2.46035C0.011822 0.948291 0.984023 0.00176958 2.4783 0.00092296C11.0106 -0.00077028 19.5429 7.63397e-05 28.0751 0.00176958C28.3814 0.00176958 28.6901 -0.00331014 28.9938 0.0305547C30.0965 0.152468 30.9407 1.05327 30.9825 2.17758C31.011 2.93785 30.9959 3.69981 30.9968 4.46176C30.9984 9.9885 30.9984 15.5152 30.9984 21.0428C30.9984 21.268 30.9993 21.4941 30.9942 21.7193C30.965 23.0942 30.1091 23.9882 28.7495 24.028C27.886 24.0534 27.0209 24.0339 26.1567 24.0339C24.1771 24.0339 22.1976 24.0339 20.2172 24.0339C19.9168 24.0339 19.6156 24.0339 19.2299 24.0339L19.2308 24.0331ZM30.048 19.0169C30.0689 18.7205 30.1015 18.475 30.1015 18.2287C30.1049 13.099 30.1049 7.96931 30.1015 2.83879C30.1015 2.61529 30.0999 2.38331 30.0413 2.17081C29.8204 1.36398 29.2172 0.948291 28.2692 0.947444C19.7688 0.944904 11.2683 0.945751 2.76779 0.945751C2.65651 0.945751 2.5444 0.939825 2.43312 0.949138C1.7571 1.00501 1.27351 1.34705 1.06016 1.9981C0.95725 2.3122 0.910397 2.66016 0.910397 2.99203C0.89952 8.09376 0.89952 13.1955 0.90203 18.2972C0.90203 18.5385 0.94721 18.7798 0.971473 19.0253H8.15338C8.15338 18.4513 8.15672 17.923 8.15338 17.3947C8.14585 16.3652 8.48302 15.4627 9.13311 14.6779C10.0426 13.5799 11.2047 12.9948 12.6262 12.9838C14.4375 12.9695 16.2498 13.0008 18.0611 12.9652C21.176 12.9043 23.0652 15.5305 22.8761 17.8655C22.846 18.243 22.9046 18.6274 22.9221 19.0152H30.048V19.0169ZM0.89952 20.1657C0.89952 20.5594 0.8945 20.8633 0.900357 21.1681C0.926293 22.433 1.51949 23.018 2.76695 23.0171C7.6472 23.0138 12.5274 23.0112 17.4085 23.007C21.1175 23.0044 24.8272 23.007 28.5361 22.9934C29.4439 22.99 29.9049 22.6311 30.0597 21.7709C30.1517 21.2579 30.1785 20.7186 29.9936 20.1657H0.89952ZM21.9466 19.0143C21.9466 18.4513 21.9742 17.9493 21.9416 17.4506C21.8244 15.6405 20.2749 14.0464 18.5364 14.0116C16.5058 13.971 14.4735 13.9718 12.4429 14.0083C10.706 14.0396 9.43933 15.2748 9.21761 16.9511C9.1306 17.6123 9.13144 18.2854 9.08793 19.0143H21.9466ZM18.195 24.0424C16.3083 24.0432 14.4702 23.9865 12.5835 24.0839C12.5919 25.0804 12.5509 25.9668 12.6111 26.8608H18.195V24.0424Z" fill="black"/>
<path d="M15.4365 3.82849C17.8561 3.67949 19.5119 5.99161 19.5362 7.91851C19.5613 9.94617 17.908 11.9188 15.5888 11.9941C13.5908 12.0593 11.4624 10.7014 11.4097 7.82454C11.3703 5.69444 13.2562 3.84627 15.4365 3.82849ZM15.4047 10.9604C16.9894 11.0764 18.5447 9.74552 18.579 7.96084C18.6117 6.24813 17.2035 4.80634 15.5369 4.78517C13.8176 4.76316 12.4086 6.18125 12.4028 7.93883C12.3969 9.70234 13.6419 10.9545 15.4047 10.9604Z" fill="black"/>
</svg>
