<svg width="64" height="64" viewBox="0 0 64 64" fill="none" xmlns="http://www.w3.org/2000/svg">
<path d="M0.0178386 44.5107C0.325554 43.4668 0.726923 42.481 1.58318 41.736C3.63015 39.9696 6.56906 40.2327 8.28603 42.3516C9.90934 44.3635 9.48567 47.3656 7.3495 48.9358C7.22017 49.0295 7.09084 49.1232 6.95259 49.2213C7.3495 49.5737 7.74641 49.877 8.08088 50.2384C10.3375 52.7097 9.22256 56.769 6.01607 57.7147C5.5701 57.8441 5.41847 58.0136 5.43185 58.473C5.46307 59.7578 5.44077 61.0469 5.44077 62.3673H12.6654V61.5466C12.6654 50.0867 12.6654 38.6268 12.6654 27.167C12.6654 25.9313 12.8438 25.7484 14.0613 25.7484C15.9165 25.7484 17.7672 25.7484 19.6225 25.7484H20.2914V24.95C20.2914 19.6594 20.2914 14.3644 20.2914 9.0739C20.2914 7.88286 20.4743 7.69996 21.665 7.69996C23.8324 7.69996 25.9998 7.69996 28.1627 7.69996C28.3857 7.69996 28.6131 7.69996 28.8941 7.69996C28.8941 7.00853 28.8941 6.38848 28.8941 5.76843C28.8941 4.18483 28.8896 2.60124 28.8941 1.01765C28.8941 0.393136 29.1973 0.0139658 29.6745 0.000583368C30.1695 -0.0172599 30.4995 0.375292 30.504 1.03103C30.5085 3.21684 30.504 5.40264 30.504 7.66428C30.7493 7.67766 30.9678 7.6955 31.1863 7.6955C33.3314 7.6955 35.4765 7.6955 37.6216 7.6955C38.6116 7.6955 38.8391 7.923 38.8391 8.90884C38.8391 10.8671 38.8391 12.8254 38.8391 14.7837C38.8391 15.0112 38.8391 15.2343 38.8391 15.5733C39.1379 15.4573 39.3609 15.377 39.5749 15.2834C42.9643 13.847 46.3491 12.4061 49.7385 10.9653C50.9292 10.4568 51.3573 10.7378 51.3573 12.0359C51.3573 28.4963 51.3573 44.9567 51.3573 61.4172V62.3406H58.5151C58.5329 62.2291 58.5775 62.0908 58.5775 61.9569C58.582 60.7481 58.5953 59.5392 58.5641 58.3303C58.5597 58.1429 58.3902 57.8351 58.2386 57.7861C56.312 57.2106 55.1168 55.9437 54.818 53.9765C54.5148 51.9959 55.3219 50.4436 56.9899 49.3373C57.0166 49.3194 57.0255 49.2659 57.0434 49.2302C53.7923 46.9329 54.5103 43.4936 56.1024 41.9055C57.9576 40.0588 61.066 40.148 62.8008 42.0706C64.4196 43.8638 64.7006 47.205 61.6636 49.2302C61.8152 49.3507 61.9579 49.4577 62.1006 49.5692C63.5634 50.7246 64.2457 52.219 63.9201 54.0702C63.5946 55.9348 62.4574 57.1437 60.6646 57.7504C60.4728 57.8173 60.1919 58.0225 60.1874 58.1697C60.1517 59.5392 60.1651 60.9131 60.1651 62.3896C60.9857 62.3896 61.7661 62.3896 62.5466 62.3896C62.774 62.3896 63.0371 62.3272 63.2244 62.4164C63.5009 62.5502 63.9157 62.7911 63.9246 62.9963C63.938 63.3264 63.6615 63.6654 63.5054 64C42.3354 64 21.17 64 0 64C0 63.6253 0 63.2506 0 62.8759C0.334474 62.4878 0.75814 62.3629 1.26654 62.3807C2.10941 62.4119 2.95229 62.3896 3.83976 62.3896C3.83976 60.922 3.85314 59.5526 3.82192 58.1875C3.82192 58.0403 3.59002 57.853 3.42055 57.7638C2.98351 57.5318 2.4974 57.3891 2.0782 57.1348C0.923147 56.4344 0.370151 55.288 0.0178386 54.0167V52.6427C0.370151 51.2287 1.07032 50.0465 2.43943 49.257C1.05248 48.4585 0.38353 47.2764 0.0178386 45.8891V44.5107ZM49.7474 12.7362C49.5021 12.8344 49.3282 12.9013 49.1587 12.9727C42.9197 15.6224 36.6851 18.281 30.4371 20.9174C29.9822 21.1092 29.8306 21.3367 29.8306 21.8318C29.844 35.1251 29.844 48.4139 29.844 61.7071C29.844 61.9257 29.8618 62.1488 29.8707 62.3807H34.3616C34.3616 62.1264 34.3616 61.9034 34.3616 61.6804C34.3616 59.4098 34.3616 57.1393 34.3616 54.8687C34.3616 53.7713 34.5444 53.584 35.6192 53.584C38.411 53.584 41.2027 53.584 43.99 53.584C45.0202 53.584 45.2476 53.8115 45.2476 54.8285C45.2476 57.1214 45.2476 59.4098 45.2476 61.7027C45.2476 61.9257 45.2476 62.1443 45.2476 62.3629H49.7385V12.7362H49.7474ZM14.3021 62.3673H28.2117V27.4034H14.3021V62.3673ZM37.2024 15.3681V9.33708H21.9459V15.3681H37.2024ZM21.9459 17.0142V25.7128H28.2474C28.2474 24.1158 28.2697 22.559 28.2385 21.0021C28.2251 20.3642 28.4615 20.0118 29.0457 19.7709C31.0035 18.9635 32.9479 18.1204 34.8968 17.2863C35.0261 17.2327 35.1465 17.1524 35.3918 17.0142H21.9459ZM43.6287 55.1943H35.9938V62.3584H43.6287V55.1943ZM7.66168 45.1932C7.66168 43.5293 6.3104 42.1598 4.65141 42.1553C3.00134 42.1509 1.63669 43.5204 1.63223 45.1842C1.63223 46.8481 2.98351 48.2131 4.64249 48.2176C6.30148 48.2176 7.65722 46.8615 7.66168 45.1932ZM62.4083 45.1932C62.4083 43.5293 61.0526 42.1598 59.3981 42.1553C57.7435 42.1553 56.3833 43.5159 56.3789 45.1842C56.3789 46.8526 57.7212 48.2131 59.3847 48.2221C61.0392 48.2265 62.4039 46.8615 62.4039 45.1976L62.4083 45.1932ZM1.63223 53.3252C1.63223 54.9891 3.00134 56.3586 4.65141 56.3541C6.3104 56.3541 7.66168 54.9847 7.66168 53.3163C7.66168 51.648 6.30148 50.283 4.64695 50.2874C2.99242 50.2874 1.63223 51.6569 1.63669 53.3252H1.63223ZM56.3789 53.294C56.3655 54.9668 57.6945 56.3274 59.3624 56.3541C61.0035 56.3809 62.395 55.007 62.4039 53.3476C62.4128 51.6792 61.0838 50.3097 59.4159 50.2874C57.7703 50.2607 56.3878 51.6301 56.3744 53.294H56.3789Z" fill="black"/>
<path d="M39.7667 37.1325C41.6174 37.1325 43.4682 37.1102 45.319 37.1548C45.6311 37.1637 46.037 37.3867 46.2243 37.641C46.4918 38.0112 46.2153 38.5332 45.7515 38.667C45.5196 38.7339 45.261 38.7384 45.0112 38.7384C41.5372 38.7384 38.0676 38.7384 34.5935 38.7384C34.4463 38.7384 34.3036 38.7473 34.1565 38.7339C33.6614 38.6893 33.3225 38.4529 33.2913 37.9265C33.2645 37.4715 33.6525 37.1369 34.2144 37.1325C36.0652 37.1235 37.9159 37.1325 39.7667 37.1325Z" fill="#0AB8B6"/>
<path d="M39.8336 32.2523C41.5818 32.2523 43.3344 32.2523 45.0826 32.2523C45.2922 32.2523 45.5553 32.1943 45.6936 32.2969C45.9344 32.4754 46.2376 32.7519 46.251 33.0017C46.2644 33.2515 46.0013 33.5772 45.7694 33.7556C45.5999 33.885 45.2922 33.8538 45.0425 33.8538C41.5416 33.8582 38.0408 33.8538 34.54 33.8538C34.4151 33.8538 34.2902 33.8582 34.1654 33.8493C33.6704 33.8091 33.3225 33.5816 33.2868 33.0553C33.2556 32.6003 33.6436 32.2568 34.2055 32.2523C36.0786 32.2434 37.9561 32.2523 39.8291 32.2523H39.8336Z" fill="#0AB8B6"/>
<path d="M39.8336 43.5204C37.9828 43.5204 36.1321 43.5427 34.2813 43.4981C33.9692 43.4891 33.5722 43.2661 33.3805 43.0163C33.104 42.6505 33.3716 42.133 33.8443 41.9948C34.0762 41.9278 34.3348 41.9189 34.5846 41.9189C38.0586 41.9145 41.5283 41.9189 45.0023 41.9189C45.1495 41.9189 45.2922 41.91 45.4394 41.9278C46.0191 41.9858 46.3358 42.2981 46.2912 42.7888C46.2376 43.3285 45.8853 43.5204 45.3859 43.5204C43.5351 43.5204 41.6843 43.5204 39.8336 43.5204Z" fill="#0AB8B6"/>
<path d="M39.8291 46.7411C41.6397 46.7411 43.4459 46.7411 45.2565 46.7411C45.9567 46.7411 46.2956 47.0087 46.2956 47.5262C46.2956 48.0436 45.9567 48.3291 45.2565 48.3291C41.6175 48.338 37.9784 48.338 34.3438 48.3291C33.6614 48.3291 33.2868 48.0213 33.2868 47.5262C33.2868 47.0266 33.657 46.7411 34.3393 46.7366C36.1678 46.7322 37.9962 46.7366 39.8291 46.7366V46.7411Z" fill="#0AB8B6"/>
<path d="M39.8336 29.0361C38.0007 29.0361 36.1678 29.0584 34.3348 29.0182C34.0137 29.0093 33.6035 28.8219 33.4028 28.5811C33.0951 28.2108 33.376 27.6354 33.8621 27.5149C34.0985 27.4569 34.3571 27.4569 34.6069 27.4569C38.0631 27.4569 41.5238 27.4569 44.98 27.4569C45.1272 27.4569 45.2744 27.4525 45.4171 27.4614C46.0102 27.506 46.3313 27.8004 46.2912 28.2956C46.251 28.8398 45.8987 29.0405 45.3948 29.0405C43.7492 29.0405 42.1035 29.0405 40.4579 29.0405C40.2483 29.0405 40.0432 29.0405 39.8336 29.0405V29.0361Z" fill="#0AB8B6"/>
<path d="M24.4032 50.8183C24.4032 51.193 24.4255 51.5677 24.3943 51.9379C24.3586 52.3706 24.0821 52.616 23.654 52.6338C23.2259 52.6517 22.9003 52.4197 22.8735 51.9915C22.8289 51.2064 22.8289 50.4168 22.8735 49.6317C22.9003 49.2034 23.2259 48.9849 23.6584 49.0027C24.0955 49.0205 24.3586 49.2659 24.3943 49.6986C24.4255 50.0688 24.3987 50.4436 24.3987 50.8183H24.4032Z" fill="#0AB8B6"/>
<path d="M18.1374 33.0508C18.1374 32.6761 18.1106 32.3014 18.1419 31.9311C18.1775 31.5029 18.4407 31.2531 18.8777 31.2353C19.3103 31.2174 19.6358 31.436 19.6581 31.8642C19.7027 32.6493 19.7027 33.4389 19.6581 34.224C19.6358 34.6522 19.3058 34.8842 18.8777 34.8664C18.454 34.8485 18.1731 34.6032 18.1374 34.1705C18.1062 33.8002 18.1329 33.4255 18.1329 33.0508H18.1374Z" fill="#0AB8B6"/>
<path d="M24.4032 33.0508C24.4032 33.4255 24.4255 33.8002 24.3987 34.1705C24.3631 34.6076 24.0866 34.853 23.6629 34.8708C23.2348 34.8887 22.9048 34.6612 22.8825 34.2329C22.8379 33.4478 22.8379 32.6583 22.8825 31.8732C22.9048 31.4449 23.2303 31.2219 23.6629 31.2397C24.0955 31.2576 24.3631 31.4984 24.3987 31.9311C24.43 32.3014 24.4032 32.6761 24.4032 33.0508Z" fill="#0AB8B6"/>
<path d="M18.1329 38.9257C18.1329 38.5733 18.1106 38.2164 18.1374 37.8685C18.1731 37.4046 18.4629 37.1458 18.9178 37.1458C19.346 37.1458 19.6492 37.3957 19.6671 37.8239C19.7027 38.5867 19.7027 39.3584 19.6671 40.1212C19.6448 40.5495 19.337 40.7859 18.9 40.777C18.4317 40.768 18.1686 40.5048 18.1374 40.0454C18.1106 39.6751 18.1329 39.3004 18.1374 38.9257H18.1329Z" fill="#0AB8B6"/>
<path d="M24.4121 39.0149C24.4121 39.345 24.4255 39.6796 24.4121 40.0097C24.3898 40.4647 24.1445 40.7502 23.6807 40.777C23.2169 40.8037 22.9003 40.5584 22.8735 40.0989C22.8334 39.354 22.8334 38.6045 22.8691 37.8596C22.8914 37.4046 23.1946 37.1325 23.654 37.1458C24.1445 37.1637 24.4032 37.4626 24.421 37.9533C24.4344 38.3057 24.421 38.6581 24.421 39.0105L24.4121 39.0149Z" fill="#0AB8B6"/>
<path d="M18.1329 50.796C18.1329 50.4436 18.1106 50.0867 18.1374 49.7387C18.1686 49.2793 18.4317 49.0116 18.9 49.0027C19.337 48.9938 19.6448 49.2302 19.6671 49.654C19.7072 50.4168 19.7117 51.1885 19.6671 51.9513C19.6448 52.4108 19.3192 52.6561 18.8599 52.6294C18.4317 52.6026 18.1686 52.3439 18.1374 51.9112C18.1106 51.5409 18.1329 51.1662 18.1329 50.7915V50.796Z" fill="#0AB8B6"/>
<path d="M18.1374 44.8898C18.1374 44.5151 18.1151 44.1404 18.1419 43.7702C18.1775 43.333 18.4629 43.0877 18.8822 43.0743C19.2969 43.0609 19.6403 43.275 19.6626 43.7122C19.7027 44.4973 19.7027 45.2868 19.6626 46.0719C19.6403 46.5091 19.2969 46.7277 18.8822 46.7098C18.4674 46.692 18.1775 46.4467 18.1419 46.0095C18.1151 45.6392 18.1374 45.2645 18.1374 44.8898Z" fill="#0AB8B6"/>
<path d="M24.4032 44.8898C24.4032 45.2645 24.4255 45.6392 24.3987 46.0095C24.3675 46.4467 24.0776 46.692 23.6629 46.7098C23.2482 46.7277 22.9003 46.5136 22.878 46.0719C22.8379 45.2868 22.8379 44.4973 22.878 43.7122C22.9003 43.2706 23.2392 43.0564 23.6584 43.0698C24.0732 43.0832 24.3675 43.3241 24.3987 43.7657C24.4255 44.136 24.4032 44.5107 24.4032 44.8854V44.8898Z" fill="#0AB8B6"/>
<path d="M24.4032 56.7378C24.4032 57.1125 24.4255 57.4872 24.3943 57.8574C24.3586 58.2901 24.0821 58.531 23.654 58.5444C23.2214 58.5578 22.9003 58.3392 22.878 57.9065C22.8379 57.1214 22.8379 56.3318 22.878 55.5467C22.9048 55.114 23.2437 54.891 23.6629 54.9133C24.0776 54.9356 24.3675 55.1809 24.3943 55.6181C24.421 55.9884 24.3987 56.3631 24.3987 56.7378H24.4032Z" fill="#0AB8B6"/>
<path d="M18.1285 56.7155C18.1285 56.3854 18.1196 56.0508 18.1285 55.7207C18.1463 55.23 18.4139 54.9267 18.8955 54.9133C19.3861 54.8999 19.6715 55.2122 19.6894 55.6895C19.7161 56.3943 19.7161 57.0991 19.6804 57.8039C19.6581 58.2857 19.3549 58.5667 18.8554 58.5399C18.3871 58.5132 18.1463 58.2277 18.124 57.7727C18.1062 57.4203 18.124 57.0679 18.124 56.7155H18.1285Z" fill="#0AB8B6"/>
</svg>
