<svg width="64" height="57" viewBox="0 0 64 57" fill="none" xmlns="http://www.w3.org/2000/svg">
<path d="M47.0149 49.9923C47.0653 54.0825 42.6755 55.9435 39.7668 53.4627C39.6897 53.64 39.6142 53.7987 39.5505 53.9609C38.435 56.7895 34.951 57.6288 32.7116 55.5753C32.0356 54.9555 31.4603 54.226 30.7424 53.4424C30.6417 53.7329 30.6182 53.8021 30.5947 53.8697C29.4524 57.0631 25.794 57.9075 23.4003 55.5196C21.4076 53.5336 19.4316 51.5291 17.4489 49.533C15.1257 47.194 12.8024 44.8534 10.4775 42.5162C10.3333 42.371 10.179 42.2359 9.97264 42.0417C9.7009 42.9874 9.17419 43.6477 8.24323 43.7946C7.78529 43.8672 7.2871 43.7861 6.82246 43.7C5.2004 43.3944 3.58338 43.0515 1.96467 42.7307C0.446614 42.4301 -0.232738 41.4219 0.0708739 39.8868C1.51009 32.5796 2.94931 25.2741 4.39357 17.9669C4.69382 16.4487 5.66169 15.7698 7.1613 16.0518C8.94774 16.3879 10.7292 16.7611 12.5122 17.114C13.3543 17.2812 13.9968 17.7186 14.2635 18.5562C14.3926 18.9599 14.6442 18.9278 14.9378 18.9278C18.0561 18.9278 21.1794 18.8231 24.291 18.9666C26.1681 19.0527 27.6022 18.5596 29.0012 17.266C31.4066 15.0436 34.2867 15.0656 36.8683 17.1056C38.7268 18.5748 40.6844 19.8329 43.0143 20.4037C45.2604 20.9543 47.4494 20.7094 49.5327 20.0052C49.6166 19.4293 49.62 18.8974 49.7843 18.4195C50.0158 17.744 50.5492 17.3218 51.2554 17.1765C53.2214 16.7746 55.1856 16.3626 57.1599 15.9978C58.2922 15.7884 59.2953 16.5517 59.5536 17.8031C60.0904 20.3987 60.597 23.001 61.1102 25.6017C62.0563 30.3893 62.9973 35.1786 63.94 39.9679C64.2151 41.3662 63.524 42.4284 62.1301 42.7121C60.3487 43.0752 58.5639 43.4231 56.7792 43.7726C55.3953 44.0428 54.4643 43.467 54.0701 42.1092C54.0483 42.0315 54.0064 41.9589 53.9427 41.812C53.1291 42.6294 52.3441 43.4045 51.5825 44.2033C51.4802 44.3114 51.445 44.5596 51.4836 44.715C52.0908 47.1788 50.2138 50.0244 47.1877 49.9518C47.1307 49.9518 47.0737 49.9805 47.0183 49.9957L47.0149 49.9923ZM24.4655 21.0117C24.2642 20.9762 24.1887 20.9509 24.1132 20.9509C20.9329 20.9492 17.7508 20.9543 14.5704 20.9408C14.1997 20.9408 14.0823 21.0708 14.0102 21.4322C12.8595 27.2955 11.697 33.1555 10.5212 39.0121C10.4323 39.4545 10.5413 39.7382 10.8583 40.0557C15.4561 44.6626 20.0405 49.2864 24.6282 53.9034C24.7909 54.0673 24.9519 54.2361 25.1348 54.3746C25.8695 54.9268 26.6696 55.0298 27.4949 54.6229C28.3168 54.2159 28.7379 53.5302 28.7546 52.598C28.768 51.8989 28.4779 51.3433 27.9948 50.8603C26.777 49.6427 25.5441 48.4387 24.3732 47.1788C24.1334 46.9205 23.9925 46.4071 24.0646 46.0677C24.1233 45.7958 24.5577 45.4614 24.8563 45.4259C25.1633 45.3888 25.5843 45.6049 25.8275 45.843C27.3171 47.2937 28.7697 48.7815 30.2341 50.2557C31.4771 51.5071 32.7049 52.7754 33.968 54.0048C35.1992 55.2038 37.1769 54.7444 37.6952 53.1503C38.0039 52.2012 37.7472 51.3788 37.0427 50.6729C34.5954 48.2208 32.1581 45.7586 29.7175 43.2981C29.5698 43.1495 29.4071 43.006 29.2964 42.832C29.0146 42.3811 29.0633 41.9387 29.4407 41.5688C29.798 41.2193 30.2257 41.1956 30.6501 41.4439C30.8095 41.5367 30.9437 41.6803 31.0762 41.8137C33.3574 44.107 35.6354 46.402 37.9133 48.6953C38.9785 49.7677 40.0336 50.8519 41.1138 51.909C41.8586 52.6369 42.8399 52.7737 43.7205 52.3278C44.586 51.8888 45.1245 50.9583 44.8964 49.967C44.7722 49.43 44.4418 48.8744 44.0526 48.4758C41.0299 45.3803 37.9703 42.322 34.9242 39.2519C34.7765 39.1032 34.6172 38.9597 34.4981 38.7891C34.1928 38.3551 34.2062 37.9076 34.5652 37.5209C34.9426 37.1122 35.4039 37.0632 35.8669 37.3807C36.0547 37.5091 36.209 37.6881 36.3718 37.8519C39.376 40.8764 42.3802 43.901 45.3845 46.9255C45.5472 47.0893 45.7066 47.2599 45.8827 47.4051C46.8086 48.1651 48.1522 48.0789 48.9524 47.2143C49.7994 46.299 49.7659 45.1169 48.8618 44.1931C44.472 39.7044 40.1057 35.1904 35.6672 30.749C34.7027 29.783 33.5017 29.0451 32.3577 28.2801C31.9165 27.9845 31.3328 27.9068 30.7457 27.7076C30.6031 29.0079 30.4891 30.1563 30.3482 31.3012C29.8768 35.1313 27.931 37.7219 24.1501 38.7739C22.981 39.0999 22.5784 38.8634 22.3234 37.6864C21.6206 34.4389 20.948 31.183 20.1981 27.9457C19.7469 26.0002 20.2803 24.4736 21.8034 23.2408C22.6673 22.5417 23.506 21.8122 24.4571 21.01L24.4655 21.0117ZM24.1652 36.6073C26.2653 35.9419 27.6106 34.5504 28.077 32.3618C28.3973 30.8655 28.5215 29.3254 28.7043 27.8005C28.857 26.5305 29.6571 25.725 30.9218 25.8179C31.6532 25.8719 32.4064 26.0898 33.0824 26.387C34.6943 27.0929 36.0379 28.2058 37.2658 29.4588C41.409 33.6908 45.5522 37.9228 49.6887 42.1599C49.8481 42.322 49.9487 42.5415 50.1215 42.8033C51.2336 41.6735 52.1914 40.6789 53.1761 39.7129C53.4562 39.4376 53.4898 39.1776 53.4159 38.8145C52.5403 34.4406 51.6815 30.0651 50.8143 25.6895C50.5711 24.4584 50.3178 23.2273 50.0662 21.9827C49.7944 22.0553 49.5914 22.1043 49.3918 22.1634C45.7502 23.2206 42.2578 22.8203 38.9684 20.9593C37.7355 20.2619 36.6016 19.3804 35.4475 18.5478C33.8573 17.4028 32.0289 17.3319 30.6283 18.4887C28.0233 20.6385 25.4501 22.8288 22.8652 25.0056C22.1574 25.6017 21.9141 26.3448 22.1272 27.2651C22.4677 28.7411 22.7679 30.2255 23.09 31.7048C23.4423 33.3227 23.7979 34.9405 24.1636 36.6073H24.1652ZM62.0311 40.6569C60.5248 33.0474 59.037 25.5291 57.539 17.9652C55.5026 18.3739 53.5669 18.764 51.5708 19.1659C53.0721 26.7534 54.5599 34.2751 56.0612 41.8576C58.0708 41.454 60.0082 41.0639 62.0311 40.6569ZM7.92452 41.8576C9.4258 34.2717 10.9137 26.75 12.415 19.1608C10.4725 18.7741 8.59213 18.3958 6.70839 18.0395C6.61781 18.0226 6.44001 18.183 6.38969 18.2979C6.30749 18.4853 6.29407 18.7049 6.25382 18.9109C5.01253 25.1846 3.76957 31.4583 2.52996 37.732C2.34041 38.6929 2.15925 39.6538 1.96467 40.6569C3.96415 41.0588 5.88479 41.4455 7.92284 41.8576H7.92452Z" fill="black"/>
<path d="M30.9886 4.60364C30.9886 3.46543 30.9819 2.32721 30.9903 1.18899C30.9954 0.452699 31.3979 -0.0083297 32.0018 0.000114041C32.6057 0.00686904 32.9932 0.466209 32.9948 1.21095C32.9999 3.44516 33.0015 5.67938 32.9948 7.9119C32.9932 8.65664 32.599 9.09909 31.9817 9.09403C31.3661 9.08727 30.9954 8.64651 30.9903 7.89164C30.9836 6.79564 30.9886 5.69964 30.9886 4.60364Z" fill="#0AB8B6"/>
<path d="M23.1819 13.6167C23.1601 14.6215 22.3315 15.0453 21.5666 14.6096C20.0049 13.7214 18.4583 12.8077 16.9051 11.9043C16.4723 11.6526 16.0295 11.4145 15.6084 11.1443C15.0901 10.8116 14.9408 10.2746 15.2008 9.78826C15.4675 9.2867 16.058 9.09587 16.6014 9.4066C18.6143 10.5566 20.6239 11.7151 22.6116 12.9091C22.8968 13.0813 23.0595 13.4596 23.1836 13.6167H23.1819Z" fill="#0AB8B6"/>
<path d="M41.6438 14.8765C41.4156 14.6569 41.0231 14.4458 40.9191 14.1351C40.8218 13.8447 40.9929 13.4377 41.1187 13.11C41.1741 12.9648 41.4039 12.8787 41.5649 12.7841C43.4235 11.6999 45.2787 10.6124 47.1474 9.5451C47.4074 9.39649 47.7865 9.20228 48.0062 9.29179C48.345 9.43026 48.699 9.74437 48.8533 10.0754C49.0479 10.4925 48.7929 10.8995 48.397 11.1325C46.3791 12.3163 44.3561 13.49 42.3298 14.6586C42.1738 14.7481 41.9793 14.7735 41.6455 14.8765H41.6438Z" fill="#0AB8B6"/>
<path d="M37.8997 10.6207C36.8631 10.6072 36.427 9.82195 36.8245 9.07552C37.2489 8.28012 37.7136 7.50836 38.1631 6.72647C38.8408 5.54435 39.5134 4.36053 40.1978 3.18179C40.5937 2.50122 41.1573 2.30195 41.6974 2.63294C42.2224 2.9555 42.3231 3.50941 41.944 4.17477C40.8453 6.10501 39.7516 8.03863 38.6194 9.95029C38.4281 10.2712 38.0541 10.4823 37.9031 10.6207H37.8997Z" fill="#0AB8B6"/>
<path d="M27.4023 9.75954C27.1977 9.99596 27.0098 10.3894 26.7196 10.4975C26.4261 10.6073 26.0151 10.4773 25.6847 10.3624C25.5236 10.3067 25.4163 10.0551 25.3123 9.87606C24.2236 7.98804 23.1417 6.09664 22.0581 4.20524C22.0162 4.13263 21.9725 4.06001 21.9373 3.98402C21.6807 3.43011 21.8283 2.89646 22.3131 2.61951C22.7861 2.34762 23.3698 2.47765 23.6701 2.99272C24.8527 5.02091 26.0134 7.05923 27.1759 9.09924C27.2665 9.25798 27.2983 9.45219 27.4007 9.75954H27.4023Z" fill="#0AB8B6"/>
</svg>
