<svg width="64" height="56" viewBox="0 0 64 56" fill="none" xmlns="http://www.w3.org/2000/svg">
<path d="M0 49.8121C0 35.2693 0 20.728 0 6.18517C0.0287528 6.12965 0.0696122 6.07713 0.0832319 6.01861C0.998783 2.0438 3.57141 0.00312103 7.67398 0.00162054C12.6936 0.00162054 17.7148 0.00162054 22.7344 0.00162054C34.0252 0.00162054 45.3145 -0.00288095 56.6053 0.00312103C60.8531 0.00612203 63.9902 3.03262 63.9932 7.16049C64.0038 21.0611 64.0038 34.9602 63.9796 48.8608C63.9796 49.6711 63.8359 50.5174 63.5741 51.2841C62.5677 54.2221 59.8952 55.9972 56.5917 55.9987C40.198 56.0017 23.8043 55.9987 7.41067 55.9987C7.18216 55.9987 6.95214 55.9972 6.72363 55.9852C3.74241 55.8321 1.11682 53.7764 0.289042 50.942C0.17857 50.5699 0.0953384 50.1887 0 49.8121ZM61.8791 16.8417H2.11863C2.11863 17.0953 2.11863 17.2994 2.11863 17.5034C2.11863 27.8493 2.11863 38.1953 2.11863 48.5412C2.11863 51.8498 4.1964 53.9025 7.54384 53.9025C23.8512 53.9025 40.1586 53.9025 56.4661 53.9025C59.8059 53.9025 61.8776 51.8453 61.8776 48.5277C61.8792 38.2028 61.8776 27.8764 61.8776 17.5514V16.8417H61.8791ZM2.14738 14.651H61.8489C61.8489 11.9396 61.8761 9.27619 61.8277 6.61431C61.8171 6.03812 61.6158 5.42442 61.3525 4.90224C60.3537 2.92159 58.6497 2.09781 56.4645 2.09932C40.1541 2.10382 23.8422 2.10232 7.53173 2.10232C7.40613 2.10232 7.28204 2.10082 7.15643 2.10382C4.44307 2.19235 2.30628 4.01695 2.17614 6.61581C2.04448 9.27169 2.14738 11.9396 2.14738 14.651Z" fill="black"/>
<path d="M34.8696 24.1791C34.6215 25.3585 34.3521 26.6504 34.0782 27.9409C32.9659 33.1851 31.8506 38.4293 30.7368 43.6721C30.699 43.8536 30.6642 44.0367 30.6127 44.2153C30.4387 44.8005 29.9226 45.1516 29.4021 45.0465C28.7937 44.925 28.4335 44.3953 28.5637 43.7396C28.8179 42.4657 29.0994 41.1978 29.3688 39.9268C30.4947 34.6226 31.6206 29.3183 32.7495 24.0141C32.9114 23.2488 33.3518 22.8617 33.9526 22.9322C34.5095 22.9967 34.8893 23.4649 34.8696 24.1791Z" fill="#0AB8B6"/>
<path d="M20.0468 33.9234C21.9066 35.4929 23.6969 37.0039 25.4856 38.5149C25.6748 38.6754 25.873 38.833 26.0304 39.022C26.3785 39.4422 26.3815 39.8983 26.0592 40.329C25.7474 40.7476 25.1875 40.8391 24.7169 40.5706C24.5564 40.479 24.4112 40.356 24.2689 40.2359C22.1911 38.4849 20.1149 36.7308 18.0386 34.9782C17.1503 34.228 17.1306 33.6353 18.0038 32.894C20.1391 31.0814 22.2819 29.2793 24.4218 27.4727C24.8606 27.1021 25.3328 26.964 25.8443 27.3092C26.2544 27.5868 26.3906 28.0129 26.2226 28.4525C26.1197 28.7241 25.8866 28.9702 25.6581 29.1668C24.0359 30.5562 22.3985 31.9307 20.7671 33.3096C20.5462 33.4957 20.3267 33.6848 20.0468 33.9234Z" fill="#0AB8B6"/>
<path d="M43.9344 33.9084C42.5739 32.7575 41.2482 31.6351 39.9226 30.5142C39.3521 30.0326 38.774 29.5584 38.2125 29.0678C37.6526 28.5786 37.5588 27.9604 37.9492 27.4892C38.3427 27.0151 38.9813 26.9821 39.5533 27.4607C41.7476 29.2988 43.9374 31.1444 46.1135 33.002C46.8157 33.6007 46.8142 34.246 46.1181 34.8387C43.9389 36.6948 41.7491 38.5404 39.5564 40.3785C38.9843 40.8587 38.3608 40.8301 37.9507 40.3515C37.5603 39.8968 37.6481 39.2501 38.2095 38.7715C39.9468 37.292 41.6947 35.826 43.438 34.3525C43.5939 34.222 43.7406 34.0809 43.9359 33.9053L43.9344 33.9084Z" fill="#0AB8B6"/>
<path d="M4.45366 8.42991C4.45064 6.60981 5.94427 5.11982 7.77689 5.11381C9.58983 5.10781 11.1183 6.62181 11.1198 8.42391C11.1198 10.223 9.59588 11.7415 7.78294 11.7445C5.96092 11.7475 4.45669 10.25 4.45366 8.42991ZM8.99661 8.41191C8.98753 7.7802 8.43064 7.22501 7.79656 7.21451C7.12919 7.20401 6.56322 7.77119 6.57078 8.44192C6.57835 9.08563 7.1186 9.62881 7.76478 9.63931C8.41702 9.65132 9.00569 9.06462 8.99813 8.41191H8.99661Z" fill="#0AB8B6"/>
<path d="M31.6508 8.45992C31.6675 10.292 30.2026 11.7715 28.3564 11.7865C26.5086 11.8015 25.0089 10.346 24.9938 8.52294C24.9802 6.69834 26.4587 5.20384 28.2928 5.18884C30.1345 5.17383 31.6342 6.63532 31.6508 8.46142V8.45992ZM28.3079 9.68583C28.9692 9.69483 29.505 9.19216 29.5277 8.54095C29.5534 7.85972 29.0252 7.30304 28.3443 7.29254C27.6648 7.28203 27.1109 7.82821 27.117 8.50344C27.123 9.15465 27.6496 9.67682 28.3079 9.68583Z" fill="#0AB8B6"/>
<path d="M18.0992 5.16333C19.9454 5.18884 21.4042 6.67433 21.3815 8.50644C21.3588 10.3235 19.841 11.788 18.0038 11.764C16.1667 11.74 14.7063 10.2455 14.729 8.41191C14.7517 6.5813 16.2499 5.13782 18.0992 5.16333ZM16.8477 8.46442C16.8492 9.12014 17.3682 9.64682 18.025 9.66032C18.706 9.67532 19.2629 9.13064 19.2599 8.45542C19.2568 7.8027 18.7363 7.27753 18.078 7.26403C17.3909 7.25052 16.8446 7.7817 16.8477 8.46442Z" fill="#0AB8B6"/>
</svg>
