<svg width="64" height="66" viewBox="0 0 64 66" fill="none" xmlns="http://www.w3.org/2000/svg">
<g clip-path="url(#clip0_1_336)">
<path d="M20.8742 55.521C22.4742 55.521 24.0595 55.521 25.6447 55.521C26.5295 55.521 26.8171 55.7411 27.0678 56.5997C27.665 58.6838 28.277 60.7752 28.8447 62.8666C28.9848 63.3729 29.1618 63.6518 29.7516 63.6444C31.9341 63.6151 34.1092 63.6151 36.2917 63.6444C36.9037 63.6518 37.1102 63.3729 37.265 62.8446C37.8844 60.8119 38.5553 58.7938 39.1747 56.7612C39.3664 56.1301 39.7129 55.7485 40.347 55.5504C43.5691 54.5303 46.4374 52.8792 48.9369 50.6191C49.4751 50.1274 50.0134 50.0247 50.6991 50.1788C52.8226 50.6631 54.9608 51.0961 57.0917 51.5804C57.4899 51.6684 57.7406 51.6391 57.947 51.2795C59.0973 49.2835 60.2549 47.2875 61.4198 45.2915C61.6337 44.9319 61.5452 44.6824 61.2724 44.3889C59.783 42.7965 58.3304 41.1674 56.8337 39.5897C56.3397 39.0687 56.1922 38.533 56.3397 37.8432C57.0549 34.5777 57.0475 31.3049 56.3397 28.0394C56.1922 27.3789 56.3397 26.8652 56.8115 26.3516C58.3157 24.7738 59.7608 23.1448 61.2503 21.5524C61.5452 21.2368 61.6337 20.9726 61.4125 20.5911C60.2622 18.6171 59.112 16.6431 57.9691 14.6618C57.7406 14.2728 57.4456 14.2435 57.0401 14.3389C54.9387 14.8305 52.83 15.2782 50.7286 15.7772C50.006 15.946 49.4678 15.8065 48.9074 15.3075C46.4374 13.0841 43.6134 11.455 40.4355 10.4423C39.7572 10.2295 39.3738 9.84056 39.1673 9.15076C38.5553 7.09606 37.8696 5.05603 37.2429 3.00133C37.1028 2.53902 36.8963 2.32621 36.3876 2.32621C34.1387 2.34823 31.8899 2.34823 29.641 2.32621C29.1839 2.32621 29.0143 2.52434 28.8963 2.94262C28.2991 5.10006 27.6797 7.2575 27.0604 9.4076C26.8244 10.2148 26.5221 10.4423 25.6742 10.4423C24.2954 10.4423 22.9166 10.4716 21.5378 10.4276C21.0143 10.4129 20.7931 10.5744 20.594 11.0514C19.8346 12.9079 17.8364 14.0087 15.9194 13.6931C13.8475 13.3482 12.2991 11.7191 12.1516 9.70847C11.9968 7.65376 13.2503 5.78985 15.2042 5.15877C17.3645 4.46897 19.6724 5.49633 20.594 7.57304C20.6825 7.77851 20.771 7.99132 20.8668 8.21881H25.1138C25.7111 6.12741 26.3599 4.05803 26.8834 1.95196C27.1562 0.84389 27.6503 0.3082 28.8521 0.190788C31.8899 -0.110079 34.9056 -0.110079 37.9286 0.300862C38.5627 0.38892 38.865 0.792523 39.042 1.3649C39.7129 3.50033 40.406 5.63575 41.0622 7.77851C41.1876 8.18945 41.3719 8.41694 41.7996 8.57104C44.8005 9.62775 47.4991 11.2055 49.9397 13.2308C50.1609 13.4143 50.5664 13.517 50.8392 13.4583C53.0438 13.0107 55.241 12.5337 57.4309 12.02C58.1977 11.8439 58.7212 12.02 59.2152 12.6511C61.1102 15.1167 62.6585 17.7805 63.8456 20.6498C64.1185 21.3102 64.03 21.8092 63.5433 22.3302C62.0023 23.9666 60.5056 25.6398 58.9645 27.2835C58.6696 27.5991 58.5664 27.8853 58.6475 28.3182C59.23 31.4076 59.2374 34.5043 58.6475 37.6011C58.5664 38.0267 58.6475 38.3202 58.9498 38.6431C60.4908 40.2795 61.9949 41.9526 63.536 43.5891C64.0447 44.1321 64.1185 44.6458 63.8309 45.3282C62.6291 48.2195 61.0659 50.8979 59.1489 53.3782C58.7065 53.9506 58.2051 54.0974 57.5267 53.9433C55.3074 53.4443 53.088 52.9453 50.8613 52.4903C50.5811 52.4316 50.1682 52.5197 49.9544 52.7031C47.4991 54.7505 44.7636 56.3135 41.7627 57.4216C41.4973 57.517 41.2097 57.8252 41.1212 58.0894C40.406 60.2395 39.7203 62.3969 39.0567 64.5544C38.8429 65.2588 38.43 65.5891 37.6926 65.6844C34.5959 66.0807 31.5065 66.0807 28.4097 65.6844C27.6724 65.5891 27.2521 65.2735 27.053 64.5544C26.4705 62.441 25.8512 60.3349 25.2687 58.2141C25.1581 57.8032 24.9738 57.6784 24.5609 57.6931C23.5286 57.7225 22.489 57.7298 21.4567 57.6931C20.9774 57.6711 20.8005 57.8399 20.6235 58.2728C19.7682 60.3789 17.4751 61.4576 15.3 60.8265C13.1986 60.2101 11.8198 58.0454 12.1885 55.9393C12.5793 53.6791 14.5037 52.0941 16.782 52.2335C18.559 52.3436 19.842 53.2462 20.594 54.8606C20.6899 55.066 20.771 55.2788 20.8742 55.5137V55.521ZM18.7655 9.36357C18.7655 8.1601 17.7774 7.18412 16.5756 7.16944C15.3443 7.1621 14.3341 8.17478 14.3562 9.40026C14.3784 10.5964 15.3738 11.565 16.583 11.5577C17.7774 11.5577 18.7728 10.5524 18.7655 9.36357ZM16.5535 54.4276C15.3516 54.4276 14.3636 55.4109 14.3562 56.6071C14.3562 57.8325 15.3664 58.8305 16.5977 58.8159C17.7922 58.8012 18.7802 57.7885 18.7655 56.5997C18.7507 55.3963 17.7627 54.4276 16.5535 54.4276Z" fill="black"/>
<path d="M8.73022 45.0789C8.61962 45.3357 8.53114 45.5706 8.42791 45.798C7.57261 47.684 5.5081 48.7113 3.47307 48.2637C1.42331 47.8161 0.000263749 46.0549 0.000263749 43.9708C0.000263749 41.8721 1.46017 40.1183 3.56893 39.678C5.56708 39.267 7.6316 40.3017 8.42054 42.195C8.65648 42.76 8.93667 42.8994 9.51916 42.8994C17.2685 42.8774 25.0178 42.8994 32.7671 42.8774C37.6187 42.8628 41.5708 39.6486 42.5809 34.9301C43.7238 29.6173 40.0076 24.1723 34.6104 23.255C29.0288 22.3084 23.7643 26.0729 23.027 31.5472C22.968 31.9802 22.9385 32.4131 22.909 32.8461C22.8574 33.6973 22.474 34.0789 21.604 34.0862C20.6602 34.0936 19.7164 34.1229 18.7726 34.0716C18.2491 34.0422 18.0279 34.2257 17.8288 34.7026C17.0694 36.5519 15.0639 37.66 13.1542 37.3444C11.0823 36.9995 9.5339 35.3631 9.38644 33.3597C9.2316 31.305 10.4851 29.4411 12.439 28.81C14.5993 28.1203 16.9072 29.1549 17.8215 31.2243C17.9099 31.4298 17.9984 31.6426 18.0943 31.8701H20.7265C21.1837 28.2817 22.8722 25.3758 25.9173 23.1523H8.74496C7.79381 25.8527 5.33851 26.7774 3.28137 26.249C1.34957 25.7573 -0.0218561 23.9668 0.000263749 21.9415C0.0223836 19.9602 1.42331 18.2063 3.34773 17.744C5.66294 17.1936 7.38091 18.1843 8.75971 20.9068H9.57077C17.2758 20.9068 24.9809 20.9068 32.686 20.9068C38.909 20.9068 43.8049 24.9648 44.9256 31.0482C46.1275 37.5719 41.239 44.169 34.603 44.9541C33.9173 45.0349 33.2316 45.0789 32.5385 45.0789C24.8777 45.0862 17.2242 45.0789 9.5634 45.0789H8.73022ZM6.62146 22.0222C6.62146 20.8187 5.65556 19.8281 4.45372 19.806C3.22238 19.784 2.20487 20.7894 2.21225 22.0149C2.21225 23.211 3.20764 24.187 4.41685 24.1943C5.61132 24.1943 6.61409 23.211 6.62146 22.0222ZM13.803 35.187C14.9975 35.187 16.0003 34.1963 16.0003 33.0002C16.0003 31.7967 15.027 30.8134 13.8251 30.7987C12.5938 30.784 11.5837 31.7894 11.591 33.0149C11.6058 34.211 12.5938 35.187 13.803 35.187ZM4.43897 41.7914C3.23713 41.7767 2.23436 42.7453 2.21225 43.9415C2.19013 45.167 3.19289 46.1796 4.4316 46.1796C5.62607 46.1796 6.62146 45.1816 6.62146 43.9928C6.62146 42.7894 5.64819 41.806 4.43897 41.7914Z" fill="#0AB8B6"/>
</g>
<defs>
<clipPath id="clip0_1_336">
<rect width="64" height="66" fill="white"/>
</clipPath>
</defs>
</svg>
