<svg width="64" height="63" viewBox="0 0 64 63" fill="none" xmlns="http://www.w3.org/2000/svg">
<g clip-path="url(#clip0_1_347)">
<path d="M34.0029 0C35.1347 0.149577 36.2699 0.271212 37.3967 0.453663C42.4365 1.27552 46.9872 3.23317 51.0872 6.22143C51.2024 6.30526 51.3192 6.3858 51.5579 6.5551C51.4745 5.54258 51.401 4.64018 51.3259 3.73943C51.2992 3.41234 51.2541 3.08688 51.2474 2.75978C51.2324 1.99546 51.7065 1.46619 52.4126 1.43496C53.1288 1.40373 53.6513 1.86068 53.7331 2.62993C53.8316 3.54712 53.905 4.46595 53.9868 5.38478C54.0954 6.60934 54.1972 7.83555 54.309 9.06011C54.3942 9.98552 53.9952 10.5181 53.0553 10.6085C50.9019 10.8172 48.7451 11.0112 46.5882 11.1871C45.6284 11.266 45.0324 10.809 45.0007 10.0365C44.969 9.26558 45.5082 8.80205 46.4781 8.72973C47.5548 8.64919 48.6282 8.54235 49.8201 8.43715C49.6382 8.27442 49.538 8.16429 49.4195 8.08046C43.5934 3.93832 37.0879 2.0382 29.923 2.57404C16.73 3.56027 6.19802 12.4626 3.20486 25.1536C1.8076 31.0743 2.39021 36.8749 4.70561 42.5079C4.79075 42.7167 4.89258 42.9205 4.96603 43.1325C5.21644 43.8459 4.93933 44.5214 4.29829 44.7729C3.64056 45.0326 2.93776 44.7696 2.66232 44.0629C2.14147 42.7265 1.60394 41.3902 1.20663 40.0144C-3.12703 24.9909 4.52198 8.9993 19.0421 2.68582C22.4025 1.22456 25.9132 0.35011 29.5824 0.10191C29.7661 0.0887602 29.9464 0.0345178 30.1283 0C31.4187 0 32.7108 0 34.0029 0Z" fill="black"/>
<path d="M64.0004 33.4692C63.8368 34.6411 63.7016 35.8197 63.5046 36.9867C61.3595 49.6268 51.0462 60.0183 38.2422 62.3869C29.0523 64.0881 20.6371 62.2521 13.0381 56.8624C12.9096 56.772 12.7727 56.6898 12.5423 56.5402C12.6458 57.6843 12.761 58.7149 12.8195 59.7488C12.8412 60.1219 12.8094 60.5427 12.6492 60.8698C12.3971 61.3842 11.8846 61.5453 11.3187 61.4122C10.7478 61.2774 10.4323 60.8928 10.3772 60.3241C10.2052 58.5291 10.045 56.7326 9.88138 54.936C9.83965 54.4873 9.77788 54.0385 9.76619 53.5881C9.74783 52.8666 10.1752 52.3586 10.8997 52.2896C13.1366 52.0743 15.3769 51.8721 17.6172 51.6913C18.4619 51.6223 19.0545 52.1137 19.0996 52.8386C19.1447 53.5438 18.5921 54.0714 17.7441 54.1454C16.5488 54.2489 15.3535 54.3607 14.1583 54.4675C14.1316 54.5366 14.1049 54.604 14.0782 54.673C15.4704 55.5146 16.8159 56.4433 18.2599 57.1862C35.9468 66.2693 57.2779 56.0964 61.0189 36.7993C62.1174 31.1285 61.4446 25.6238 59.221 20.2949C58.7803 19.2396 58.9272 18.5591 59.6768 18.2419C60.453 17.9115 61.069 18.2879 61.5264 19.3662C62.8369 22.4514 63.6298 25.6616 63.8919 28.9966C63.9069 29.1775 63.9637 29.355 64.0004 29.5341V33.4725V33.4692Z" fill="black"/>
<path d="M43.4071 48.0356C42.8495 47.7561 42.2151 47.5671 41.7494 47.1808C40.7294 46.331 39.6376 46.0237 38.4006 46.5316C37.1419 47.0477 36.5426 48.029 36.4976 49.3752C36.4525 50.7099 35.4258 51.7142 34.0386 51.7602C32.7065 51.8029 31.371 51.8062 30.0405 51.7586C28.6466 51.7076 27.6817 50.7329 27.6099 49.3555C27.5414 48.0471 26.9755 47.0592 25.7402 46.5447C24.4815 46.0204 23.358 46.2998 22.3481 47.2088C21.2747 48.1753 19.854 48.1325 18.8107 47.1332C17.9159 46.2751 17.0311 45.404 16.1581 44.5246C15.113 43.471 15.0696 42.0788 16.0729 40.9939C16.9761 40.0176 17.2515 38.9278 16.739 37.7081C16.2365 36.5132 15.2733 35.9313 13.9679 35.8425C12.3436 35.7308 11.4354 34.7676 11.4204 33.1649C11.4087 31.9963 11.3987 30.8276 11.4238 29.6589C11.4555 28.1188 12.4471 27.1424 14.0096 27.0734C15.3034 27.0158 16.2298 26.3962 16.7323 25.2406C17.2248 24.1065 17.0328 23.0364 16.2098 22.0896C15.0112 20.7106 15.058 19.4827 16.3601 18.1973C17.1397 17.4281 17.9159 16.6539 18.7038 15.8929C19.8624 14.7735 21.2262 14.7258 22.4265 15.786C23.3897 16.6375 24.4732 16.8692 25.6634 16.4073C26.8854 15.934 27.5014 14.9954 27.5982 13.71C27.7251 12.04 28.6482 11.1853 30.3376 11.1738C31.5245 11.1656 32.7115 11.159 33.8984 11.1771C35.4325 11.2001 36.4375 12.1682 36.5026 13.664C36.5593 14.9609 37.1803 15.8962 38.389 16.3909C39.5709 16.8758 40.6676 16.6654 41.6342 15.8189C42.8762 14.7324 44.2351 14.7653 45.4053 15.9044C46.2333 16.7131 47.0613 17.5218 47.8776 18.342C49.0078 19.4761 49.0395 20.8273 47.9611 22.0091C47.0797 22.9756 46.8576 24.0703 47.3735 25.2538C47.8893 26.4372 48.8442 27.0339 50.163 27.0816C51.612 27.1342 52.6203 28.1286 52.652 29.5537C52.6804 30.7832 52.672 32.0143 52.657 33.2438C52.6386 34.784 51.7338 35.7735 50.173 35.8343C47.8843 35.9231 46.6673 38.0254 47.265 39.7628C47.4135 40.1934 47.704 40.5994 48.0062 40.9528C49.0161 42.1346 48.9911 43.4776 47.886 44.5854C47.0379 45.4336 46.1799 46.2702 45.3252 47.1101C44.8177 47.6082 44.215 47.8958 43.4855 47.886C43.4588 47.9369 43.4321 47.9895 43.4054 48.0405L43.4071 48.0356ZM46.1715 42.6656C44.6224 40.9643 44.1349 38.9787 45.038 36.791C45.9512 34.5785 47.7441 33.5085 50.1229 33.3573V29.58C45.0046 29.3252 42.8912 23.5953 46.1398 20.275C45.2333 19.3792 44.3269 18.4833 43.4204 17.5875C40.0516 20.7714 34.2239 18.725 33.9551 13.6755H30.1189C29.9537 16.0539 28.8552 17.7881 26.6283 18.6773C24.4081 19.5633 22.3898 19.0767 20.672 17.5629C19.7372 18.4817 18.8424 19.3627 17.9309 20.2602C19.4784 21.9664 19.9742 23.9437 19.0611 26.1348C18.1396 28.3472 16.3534 29.4156 13.9595 29.5636V33.3671C16.3634 33.5003 18.1229 34.5736 19.0477 36.7581C19.9859 38.9705 19.4701 40.9643 17.991 42.6015C18.9342 43.5252 19.8407 44.4145 20.7488 45.3054C22.4616 43.8162 24.4681 43.3543 26.6934 44.2698C28.9187 45.1854 29.967 46.9441 30.1273 49.2749H33.9818C34.1287 46.9146 35.2055 45.1788 37.4274 44.2633C39.6744 43.3395 41.6943 43.8392 43.4354 45.3629C44.3586 44.4506 45.2517 43.5696 46.1715 42.6639V42.6656Z" fill="#0AB8B6"/>
<path d="M22.6836 31.4573C22.6903 26.3618 26.8854 22.2476 32.0688 22.2542C37.2488 22.2591 41.4172 26.3864 41.4022 31.4967C41.3871 36.561 37.2037 40.6768 32.0604 40.6883C26.9104 40.6998 22.6769 36.533 22.6836 31.4589V31.4573ZM25.1876 31.4688C25.196 35.1918 28.316 38.2507 32.0754 38.2228C35.8732 38.1948 38.9248 35.154 38.9015 31.4211C38.8781 27.6998 35.8348 24.7181 32.0587 24.7164C28.2609 24.7148 25.181 27.7425 25.1893 31.4688H25.1876Z" fill="black"/>
</g>
<defs>
<clipPath id="clip0_1_347">
<rect width="64" height="63" fill="white"/>
</clipPath>
</defs>
</svg>
