<svg width="64" height="64" viewBox="0 0 64 64" fill="none" xmlns="http://www.w3.org/2000/svg">
<g clip-path="url(#clip0_1_312)">
<path d="M10.6684 6.40915C10.6684 5.61315 10.6577 4.924 10.6701 4.23664C10.7147 1.87181 12.5984 0.0109267 14.9343 0.0109267C17.272 0.0109267 19.1486 1.87002 19.1949 4.2402C19.2092 4.92757 19.1967 5.61671 19.1967 6.35572H27.7304C27.7304 5.73246 27.7268 5.09852 27.7304 4.46279C27.7429 1.92701 29.5607 0.0216112 31.9714 0.0109267C34.416 0.00024224 36.2498 1.9092 36.2623 4.4806C36.2659 5.09852 36.2623 5.71644 36.2623 6.37175H44.7996C44.7996 5.62562 44.7764 4.85812 44.8031 4.0924C44.8743 2.0481 46.4109 0.368857 48.4762 0.0483224C50.3813 -0.247281 52.3647 0.911984 53.0306 2.76218C53.2068 3.25366 53.2763 3.79679 53.3137 4.32211C53.36 4.98277 53.3243 5.65055 53.3243 6.41093C53.6146 6.41093 53.8709 6.40737 54.1273 6.41093C55.9683 6.44476 57.8307 6.32189 59.6467 6.55517C62.1536 6.87748 63.9732 9.09807 63.9803 11.6321C64.0035 20.8528 63.9928 30.0735 63.9892 39.2942C63.9892 40.067 63.5477 40.5496 62.9032 40.5354C62.2622 40.5211 61.8616 40.0439 61.8598 39.2514C61.8563 33.5637 61.858 27.876 61.858 22.1866C61.858 21.9266 61.858 21.6666 61.858 21.3745H2.13467V22.0779C2.13467 32.7214 2.13467 43.3632 2.13467 54.0067C2.13467 56.3128 3.41838 57.6056 5.71159 57.6056C15.3331 57.6056 24.9547 57.6056 34.5744 57.6056C34.797 57.6056 35.0196 57.5931 35.2403 57.6127C35.8332 57.6661 36.2463 58.0935 36.2587 58.6473C36.2712 59.2261 35.8439 59.6748 35.219 59.7318C35.0641 59.746 34.9074 59.7371 34.7525 59.7371C25.0419 59.7371 15.3331 59.7389 5.62257 59.7371C2.27889 59.7371 0.00347456 57.472 0.00169411 54.1403C-0.00186679 40.0973 -0.00186679 26.0543 0.00169411 12.0132C0.00169411 8.67782 2.27355 6.41805 5.61545 6.41093C7.27661 6.40737 8.93777 6.41093 10.6684 6.41093V6.40915ZM19.1985 8.57097C19.1985 9.31176 19.2056 9.97776 19.1985 10.6438C19.1647 13.0638 17.3005 14.9407 14.9361 14.9407C12.5734 14.9407 10.7022 13.0602 10.6701 10.6473C10.6612 9.9653 10.6701 9.28327 10.6701 8.62796C10.5598 8.58344 10.5224 8.55494 10.4814 8.55494C8.79355 8.5496 7.1039 8.53358 5.41604 8.54604C3.51274 8.55851 2.15248 9.9279 2.14001 11.8386C2.12755 13.6835 2.13645 15.5266 2.13645 17.3714C2.13645 17.9644 2.13645 18.5592 2.13645 19.1646H61.8545C61.8545 16.5683 61.9061 14.0147 61.8349 11.4647C61.7904 9.85133 60.3749 8.59234 58.7423 8.5496C57.7648 8.52467 56.7873 8.54248 55.8099 8.54248C54.9962 8.54248 54.1825 8.54248 53.3315 8.54248C53.3315 9.29574 53.3778 9.96351 53.3172 10.6206C53.2638 11.21 53.1784 11.8226 52.9576 12.364C52.2133 14.1839 50.2353 15.2345 48.3587 14.8784C46.3076 14.4884 44.8601 12.8376 44.8049 10.8005C44.7853 10.0561 44.8013 9.30998 44.8013 8.57987H36.2659C36.2659 9.23163 36.2677 9.84955 36.2659 10.4675C36.2534 13.0406 34.4213 14.9514 31.9786 14.9407C29.5678 14.9318 27.7482 13.0228 27.734 10.4906C27.7304 9.85489 27.734 9.21916 27.734 8.57097H19.2003H19.1985ZM17.0655 7.54348C17.0655 6.49996 17.0726 5.45467 17.0637 4.41115C17.0513 3.10586 16.1575 2.15316 14.9486 2.14426C13.7307 2.13536 12.8102 3.07737 12.8031 4.37375C12.7924 6.43942 12.7924 8.50508 12.8031 10.5707C12.8102 11.8618 13.7379 12.8145 14.9486 12.8056C16.1575 12.7967 17.053 11.8458 17.0637 10.5405C17.0726 9.54148 17.0655 8.5407 17.0655 7.5417V7.54348ZM34.1311 7.48115C34.1311 6.43764 34.1418 5.39234 34.1276 4.34882C34.1115 3.0934 33.2017 2.15673 32.0177 2.14426C30.7999 2.13358 29.8741 3.07559 29.8669 4.37019C29.8545 6.43586 29.8563 8.50152 29.8669 10.5672C29.8741 11.86 30.7981 12.8127 32.0088 12.8056C33.2177 12.7985 34.1169 11.8493 34.1293 10.544C34.1382 9.52189 34.1311 8.49974 34.1293 7.47937L34.1311 7.48115ZM46.9308 7.47581C46.9308 8.49796 46.9236 9.52011 46.9308 10.5405C46.9414 11.844 47.8388 12.7967 49.0459 12.8056C50.2566 12.8145 51.1842 11.8654 51.1914 10.5707C51.2038 8.50508 51.2038 6.43942 51.1914 4.37375C51.1842 3.08271 50.2531 2.13358 49.0424 2.14248C47.8281 2.15316 46.9414 3.09874 46.9308 4.40759C46.9219 5.42974 46.9308 6.45188 46.9308 7.47225V7.47581Z" fill="black"/>
<path d="M50.1711 64.0001C42.4422 63.9965 36.2747 57.8049 36.2676 50.0444C36.2622 42.4833 42.5152 36.2845 50.1586 36.2756C57.7434 36.2667 63.9963 42.5136 63.9963 50.0996C63.9963 57.7639 57.7896 64.0036 50.1711 64.0001ZM50.1515 61.8703C56.5433 61.8792 61.8366 56.6171 61.8615 50.2313C61.8882 43.7298 56.643 38.409 50.2085 38.409C43.66 38.409 38.4166 43.6194 38.4006 50.1441C38.3863 56.5993 43.66 61.8614 50.1515 61.8703Z" fill="#0AB8B6"/>
<path d="M12.7959 34.1386C12.0855 34.1386 11.3733 34.1546 10.6629 34.135C9.45751 34.103 8.56373 33.2179 8.5388 32.0159C8.51744 30.951 8.51922 29.8826 8.5388 28.8177C8.56017 27.6015 9.43437 26.7022 10.6379 26.6808C12.0819 26.6559 13.5258 26.6559 14.9698 26.6808C16.1378 26.7022 17.0298 27.5943 17.0582 28.7607C17.0867 29.8488 17.085 30.9386 17.0582 32.0248C17.0315 33.2268 16.1342 34.103 14.9253 34.1332C14.2149 34.151 13.5045 34.1368 12.7923 34.1368L12.7959 34.1386ZM14.8897 31.9732V28.8551H10.7003V31.9732H14.8897Z" fill="black"/>
<path d="M25.589 34.1386C24.8786 34.1386 24.1664 34.1546 23.456 34.135C22.2525 34.1012 21.3622 33.2144 21.3373 32.0106C21.3159 30.9457 21.3159 29.8772 21.3373 28.8124C21.3605 27.5712 22.2542 26.6933 23.5077 26.6772C24.9071 26.6612 26.3065 26.6594 27.706 26.6772C28.9452 26.6933 29.8372 27.589 29.8585 28.832C29.8763 29.8755 29.8763 30.9208 29.8585 31.9643C29.8372 33.2446 28.9452 34.1154 27.6526 34.1368C26.9635 34.1475 26.2763 34.1386 25.5872 34.1368L25.589 34.1386ZM27.7024 28.8533H23.5184V31.9714H27.7024V28.8533Z" fill="black"/>
<path d="M38.3975 26.6757C39.1079 26.6757 39.8201 26.6615 40.5305 26.6775C41.7359 26.7078 42.6332 27.5875 42.6599 28.7895C42.6831 29.8775 42.6866 30.9673 42.6581 32.0536C42.6279 33.22 41.7376 34.1086 40.5661 34.1299C39.1222 34.1566 37.6782 34.1566 36.2343 34.1299C35.0663 34.1086 34.1689 33.2146 34.1422 32.0518C34.1155 30.9424 34.112 29.8294 34.144 28.72C34.1779 27.5839 35.0592 26.7185 36.2004 26.6775C36.9322 26.6508 37.6657 26.6722 38.3993 26.6722L38.3975 26.6757ZM40.4842 31.977V28.8589H36.3019V31.977H40.4842Z" fill="black"/>
<path d="M51.2166 34.1386C50.5062 34.1386 49.794 34.1528 49.0836 34.135C47.8444 34.1065 46.9559 33.2161 46.9346 31.9732C46.9168 30.9297 46.9185 29.8844 46.9346 28.8408C46.9542 27.589 47.8337 26.695 49.0765 26.6772C50.4973 26.6576 51.9198 26.6559 53.3406 26.6772C54.5406 26.6968 55.4309 27.5961 55.4558 28.8017C55.4772 29.8665 55.4772 30.935 55.4558 31.9999C55.4309 33.2357 54.5317 34.1083 53.2801 34.1332C52.5911 34.1475 51.9038 34.135 51.2148 34.135L51.2166 34.1386ZM53.2801 31.9803V28.8391H49.1032V31.9803H53.2801Z" fill="black"/>
<path d="M12.8015 36.2737C13.5119 36.2737 14.224 36.2577 14.9344 36.2755C16.1398 36.3058 17.0354 37.1873 17.0603 38.3911C17.0834 39.4791 17.087 40.5689 17.0585 41.6552C17.0282 42.8215 16.1362 43.7084 14.9647 43.7297C13.5208 43.7547 12.0768 43.7564 10.6329 43.7297C9.4649 43.7084 8.56934 42.8126 8.54263 41.6498C8.51593 40.5404 8.51236 39.4274 8.54441 38.318C8.57824 37.1819 9.46134 36.3183 10.6026 36.2773C11.3344 36.2524 12.0679 36.272 12.8015 36.272V36.2737ZM10.7148 38.4338V41.5519H14.8971V38.4338H10.7148Z" fill="black"/>
<path d="M25.6013 36.2737C26.3117 36.2737 27.0238 36.2577 27.7342 36.2755C28.9396 36.3058 29.8352 37.1873 29.8601 38.3911C29.8832 39.4791 29.8868 40.5689 29.8583 41.6552C29.8281 42.8215 28.936 43.7084 27.7645 43.7297C26.3206 43.7547 24.8766 43.7564 23.4327 43.7297C22.2647 43.7084 21.3691 42.8126 21.3424 41.6498C21.3157 40.5404 21.3122 39.4274 21.3442 38.318C21.378 37.1819 22.2611 36.3183 23.4024 36.2773C24.1342 36.2524 24.8677 36.272 25.6013 36.272V36.2737ZM27.72 38.448H23.5146V41.5519H27.72V38.448Z" fill="black"/>
<path d="M12.7729 53.3369C12.107 53.3369 11.4393 53.344 10.7734 53.3369C9.44345 53.3191 8.55322 52.443 8.53542 51.127C8.52295 50.1049 8.52117 49.0827 8.53542 48.0624C8.555 46.7749 9.43632 45.8916 10.7254 45.8774C12.1017 45.8631 13.4797 45.8631 14.856 45.8774C16.1415 45.8898 17.0388 46.7767 17.0602 48.0499C17.078 49.0934 17.078 50.1387 17.0602 51.1822C17.0371 52.4287 16.1504 53.3084 14.9041 53.3369C14.1937 53.353 13.4833 53.3405 12.7711 53.3405L12.7729 53.3369ZM14.8863 51.1751V48.057H10.7022V51.1751H14.8863Z" fill="black"/>
<path d="M25.6064 45.8721C26.3168 45.8721 27.029 45.8578 27.7394 45.8757C28.943 45.9077 29.835 46.791 29.8599 47.9965C29.8831 49.0614 29.8813 50.1299 29.8599 51.1947C29.835 52.4341 28.9412 53.3174 27.6896 53.3334C26.2901 53.3512 24.8907 53.353 23.4913 53.3334C22.2503 53.3156 21.3583 52.4181 21.3369 51.1787C21.3191 50.1352 21.3209 49.0899 21.3369 48.0464C21.3565 46.7642 22.2449 45.8952 23.5411 45.8757C24.2301 45.865 24.9174 45.8739 25.6064 45.8757V45.8721ZM27.6789 51.1805V48.041H23.5091V51.1805H27.6789Z" fill="black"/>
<path d="M36.2868 38.4055V41.5485C36.44 41.609 36.5877 41.6553 36.7231 41.7248C37.1931 41.9687 37.4103 42.3694 37.2981 42.8805C37.1806 43.4183 36.8085 43.7103 36.2495 43.7335C35.199 43.778 34.1841 42.8484 34.145 41.7373C34.104 40.5833 34.104 39.4258 34.145 38.2719C34.1841 37.1714 35.0726 36.3078 36.1818 36.2828C37.6026 36.2508 39.0252 36.2632 40.4478 36.2775C41.1332 36.2846 41.5819 36.7191 41.5908 37.3228C41.5997 37.9478 41.1332 38.393 40.4104 38.4001C39.059 38.4126 37.7059 38.4037 36.2851 38.4037L36.2868 38.4055Z" fill="black"/>
<path d="M48.0044 53.969C48.9285 53.0395 49.7849 52.174 50.6466 51.3104C52.4662 49.4887 54.2859 47.6652 56.1108 45.8488C56.7126 45.2505 57.3251 45.2095 57.7969 45.7064C58.2509 46.1836 58.2046 46.7695 57.6278 47.3482C54.7274 50.2562 51.8235 53.1623 48.9143 56.0614C48.259 56.7131 47.7338 56.7096 47.0768 56.0578C45.6738 54.6653 44.278 53.2674 42.8857 51.8659C42.3123 51.289 42.2643 50.7049 42.7219 50.2277C43.1954 49.7326 43.8061 49.7771 44.4097 50.3755C45.5902 51.5454 46.7617 52.726 48.0027 53.969H48.0044Z" fill="#0AB8B6"/>
</g>
<defs>
<clipPath id="clip0_1_312">
<rect width="64" height="64" fill="white"/>
</clipPath>
</defs>
</svg>
