<svg width="56" height="61" viewBox="0 0 56 61" fill="none" xmlns="http://www.w3.org/2000/svg">
<g clip-path="url(#clip0_2030_1800)">
<path d="M27.0453 30.5069C26.5826 30.1437 26.3092 29.9678 26.0848 29.7457C17.756 21.5034 9.43184 13.2542 1.09832 5.01661C0.226647 4.15351 -0.238404 3.20248 0.130832 1.98304C0.698708 0.108753 2.9445 -0.606255 4.50558 0.59005C4.78134 0.800617 5.0197 1.05747 5.26742 1.30275C14.274 10.2207 23.2805 19.1409 32.2871 28.0611C34.0538 29.8104 34.0491 31.1849 32.2731 32.9435C23.2268 41.9031 14.1852 50.8673 5.11552 59.806C4.60373 60.3081 3.90265 60.7293 3.21559 60.9236C2.14294 61.2268 0.965121 60.5927 0.390235 59.6348C-0.189326 58.6676 -0.123891 57.4412 0.579526 56.5434C0.792188 56.2703 1.05159 56.032 1.29697 55.7867C9.53934 47.6208 17.7817 39.4572 26.0311 31.2983C26.2765 31.0553 26.5779 30.8679 27.0453 30.5069Z" fill="white"/>
<path d="M49.4426 30.5556C48.9332 30.1252 48.6504 29.9169 48.4027 29.6717C40.1159 21.4711 31.8245 13.2728 23.5634 5.04443C23.0563 4.54 22.6193 3.83425 22.4604 3.15395C22.1986 2.01781 22.7244 1.06446 23.7246 0.425819C24.6851 -0.187374 25.9237 -0.129524 26.8444 0.550773C27.1225 0.756714 27.3679 1.01124 27.6133 1.2542C36.6409 10.1929 45.6685 19.1317 54.6937 28.0704C56.4301 29.7897 56.4347 31.1896 54.7171 32.8927C45.6287 41.8939 36.5381 50.8928 27.4567 59.9009C26.5874 60.764 25.6269 61.2245 24.393 60.8612C22.5001 60.3012 21.778 58.0752 22.9838 56.5295C23.1965 56.2565 23.4582 56.0205 23.7036 55.7752C31.967 47.5908 40.2304 39.4041 48.4985 31.2266C48.7228 31.0068 49.015 30.8541 49.4403 30.5556L49.4426 30.5556Z" fill="white"/>
</g>
<defs>
<clipPath id="clip0_2030_1800">
<rect width="61" height="56" fill="white" transform="translate(0 61) rotate(-90)"/>
</clipPath>
</defs>
</svg>
